<?xml version="1.0" encoding="UTF-8"?>
<!-- Generated by Pixelmator Pro 3.7.1 -->
<svg width="450" height="450" viewBox="0 0 450 450" xmlns="http://www.w3.org/2000/svg">
    <path id="Path" fill="#e5e7eb" stroke="#d1d5db" d="M 28 342 L 422 342 C 423.65686 342 425 343.34314 425 345 L 425 361 C 425 362.65686 423.65686 364 422 364 L 28 364 C 26.34314 364 25 362.65686 25 361 L 25 345 C 25 343.34314 26.34314 342 28 342 Z"/>
    <path id="path1" fill="#9ca3af" stroke="#6b7280" d="M 19 360 L 431 360 C 434.313721 360 437 362.686279 437 366 L 437 366 C 437 369.313721 434.313721 372 431 372 L 19 372 C 15.686295 372 13 369.313721 13 366 L 13 366 C 13 362.686279 15.686295 360 19 360 Z"/>
    <g id="Group">
        <path id="path2" fill="#b0b7c3" stroke="none" d="M 49 297 L 57 297 C 58.104568 297 59 297.895416 59 299 L 59 304 C 59 305.104584 58.104568 306 57 306 L 49 306 C 47.895432 306 47 305.104584 47 304 L 47 299 C 47 297.895416 47.895432 297 49 297 Z"/>
        <path id="path3" fill="#b0b7c3" stroke="none" d="M 65 297 L 73 297 C 74.104568 297 75 297.895416 75 299 L 75 304 C 75 305.104584 74.104568 306 73 306 L 65 306 C 63.895432 306 63 305.104584 63 304 L 63 299 C 63 297.895416 63.895432 297 65 297 Z"/>
        <path id="path4" fill="#b0b7c3" stroke="none" d="M 81 297 L 89 297 C 90.104568 297 91 297.895416 91 299 L 91 304 C 91 305.104584 90.104568 306 89 306 L 81 306 C 79.895432 306 79 305.104584 79 304 L 79 299 C 79 297.895416 79.895432 297 81 297 Z"/>
        <path id="path5" fill="#b0b7c3" stroke="none" d="M 97 297 L 105 297 C 106.104568 297 107 297.895416 107 299 L 107 304 C 107 305.104584 106.104568 306 105 306 L 97 306 C 95.895432 306 95 305.104584 95 304 L 95 299 C 95 297.895416 95.895432 297 97 297 Z"/>
        <path id="path6" fill="#b0b7c3" stroke="none" d="M 113 297 L 121 297 C 122.104568 297 123 297.895416 123 299 L 123 304 C 123 305.104584 122.104568 306 121 306 L 113 306 C 111.895432 306 111 305.104584 111 304 L 111 299 C 111 297.895416 111.895432 297 113 297 Z"/>
        <path id="path7" fill="#b0b7c3" stroke="none" d="M 129 297 L 137 297 C 138.104568 297 139 297.895416 139 299 L 139 304 C 139 305.104584 138.104568 306 137 306 L 129 306 C 127.895432 306 127 305.104584 127 304 L 127 299 C 127 297.895416 127.895432 297 129 297 Z"/>
        <path id="path8" fill="#b0b7c3" stroke="none" d="M 145 297 L 153 297 C 154.104584 297 155 297.895416 155 299 L 155 304 C 155 305.104584 154.104584 306 153 306 L 145 306 C 143.895416 306 143 305.104584 143 304 L 143 299 C 143 297.895416 143.895416 297 145 297 Z"/>
        <path id="path9" fill="#b0b7c3" stroke="none" d="M 161 297 L 169 297 C 170.104584 297 171 297.895416 171 299 L 171 304 C 171 305.104584 170.104584 306 169 306 L 161 306 C 159.895416 306 159 305.104584 159 304 L 159 299 C 159 297.895416 159.895416 297 161 297 Z"/>
        <path id="path10" fill="#b0b7c3" stroke="none" d="M 177 297 L 185 297 C 186.104584 297 187 297.895416 187 299 L 187 304 C 187 305.104584 186.104584 306 185 306 L 177 306 C 175.895416 306 175 305.104584 175 304 L 175 299 C 175 297.895416 175.895416 297 177 297 Z"/>
        <path id="path11" fill="#b0b7c3" stroke="none" d="M 193 297 L 201 297 C 202.104584 297 203 297.895416 203 299 L 203 304 C 203 305.104584 202.104584 306 201 306 L 193 306 C 191.895416 306 191 305.104584 191 304 L 191 299 C 191 297.895416 191.895416 297 193 297 Z"/>
        <path id="path12" fill="#b0b7c3" stroke="none" d="M 209 297 L 217 297 C 218.104584 297 219 297.895416 219 299 L 219 304 C 219 305.104584 218.104584 306 217 306 L 209 306 C 207.895416 306 207 305.104584 207 304 L 207 299 C 207 297.895416 207.895416 297 209 297 Z"/>
        <path id="path13" fill="#b0b7c3" stroke="none" d="M 225 297 L 233 297 C 234.104584 297 235 297.895416 235 299 L 235 304 C 235 305.104584 234.104584 306 233 306 L 225 306 C 223.895416 306 223 305.104584 223 304 L 223 299 C 223 297.895416 223.895416 297 225 297 Z"/>
        <path id="path14" fill="#b0b7c3" stroke="none" d="M 241 297 L 249 297 C 250.104584 297 251 297.895416 251 299 L 251 304 C 251 305.104584 250.104584 306 249 306 L 241 306 C 239.895416 306 239 305.104584 239 304 L 239 299 C 239 297.895416 239.895416 297 241 297 Z"/>
        <path id="path15" fill="#b0b7c3" stroke="none" d="M 257 297 L 265 297 C 266.104584 297 267 297.895416 267 299 L 267 304 C 267 305.104584 266.104584 306 265 306 L 257 306 C 255.895416 306 255 305.104584 255 304 L 255 299 C 255 297.895416 255.895416 297 257 297 Z"/>
        <path id="path16" fill="#b0b7c3" stroke="none" d="M 273 297 L 281 297 C 282.104584 297 283 297.895416 283 299 L 283 304 C 283 305.104584 282.104584 306 281 306 L 273 306 C 271.895416 306 271 305.104584 271 304 L 271 299 C 271 297.895416 271.895416 297 273 297 Z"/>
        <path id="path17" fill="#b0b7c3" stroke="none" d="M 289 297 L 297 297 C 298.104584 297 299 297.895416 299 299 L 299 304 C 299 305.104584 298.104584 306 297 306 L 289 306 C 287.895416 306 287 305.104584 287 304 L 287 299 C 287 297.895416 287.895416 297 289 297 Z"/>
        <path id="path18" fill="#b0b7c3" stroke="none" d="M 305 297 L 313 297 C 314.104584 297 315 297.895416 315 299 L 315 304 C 315 305.104584 314.104584 306 313 306 L 305 306 C 303.895416 306 303 305.104584 303 304 L 303 299 C 303 297.895416 303.895416 297 305 297 Z"/>
        <path id="path19" fill="#b0b7c3" stroke="none" d="M 321 297 L 329 297 C 330.104584 297 331 297.895416 331 299 L 331 304 C 331 305.104584 330.104584 306 329 306 L 321 306 C 319.895416 306 319 305.104584 319 304 L 319 299 C 319 297.895416 319.895416 297 321 297 Z"/>
        <path id="path20" fill="#b0b7c3" stroke="none" d="M 337 297 L 359 297 C 360.104584 297 361 297.895416 361 299 L 361 304 C 361 305.104584 360.104584 306 359 306 L 337 306 C 335.895416 306 335 305.104584 335 304 L 335 299 C 335 297.895416 335.895416 297 337 297 Z"/>
        <path id="path21" fill="#b0b7c3" stroke="none" d="M 49 311 L 65 311 C 66.104568 311 67 311.895416 67 313 L 67 318 C 67 319.104584 66.104568 320 65 320 L 49 320 C 47.895432 320 47 319.104584 47 318 L 47 313 C 47 311.895416 47.895432 311 49 311 Z"/>
        <path id="path22" fill="#b0b7c3" stroke="none" d="M 73 311 L 81 311 C 82.104568 311 83 311.895416 83 313 L 83 318 C 83 319.104584 82.104568 320 81 320 L 73 320 C 71.895432 320 71 319.104584 71 318 L 71 313 C 71 311.895416 71.895432 311 73 311 Z"/>
        <path id="path23" fill="#b0b7c3" stroke="none" d="M 89 311 L 97 311 C 98.104568 311 99 311.895416 99 313 L 99 318 C 99 319.104584 98.104568 320 97 320 L 89 320 C 87.895432 320 87 319.104584 87 318 L 87 313 C 87 311.895416 87.895432 311 89 311 Z"/>
        <path id="path24" fill="#b0b7c3" stroke="none" d="M 105 311 L 113 311 C 114.104568 311 115 311.895416 115 313 L 115 318 C 115 319.104584 114.104568 320 113 320 L 105 320 C 103.895432 320 103 319.104584 103 318 L 103 313 C 103 311.895416 103.895432 311 105 311 Z"/>
        <path id="path25" fill="#b0b7c3" stroke="none" d="M 121 311 L 129 311 C 130.104568 311 131 311.895416 131 313 L 131 318 C 131 319.104584 130.104568 320 129 320 L 121 320 C 119.895432 320 119 319.104584 119 318 L 119 313 C 119 311.895416 119.895432 311 121 311 Z"/>
        <path id="path26" fill="#b0b7c3" stroke="none" d="M 137 311 L 145 311 C 146.104584 311 147 311.895416 147 313 L 147 318 C 147 319.104584 146.104584 320 145 320 L 137 320 C 135.895432 320 135 319.104584 135 318 L 135 313 C 135 311.895416 135.895432 311 137 311 Z"/>
        <path id="path27" fill="#b0b7c3" stroke="none" d="M 153 311 L 161 311 C 162.104584 311 163 311.895416 163 313 L 163 318 C 163 319.104584 162.104584 320 161 320 L 153 320 C 151.895416 320 151 319.104584 151 318 L 151 313 C 151 311.895416 151.895416 311 153 311 Z"/>
        <path id="path28" fill="#b0b7c3" stroke="none" d="M 169 311 L 177 311 C 178.104584 311 179 311.895416 179 313 L 179 318 C 179 319.104584 178.104584 320 177 320 L 169 320 C 167.895416 320 167 319.104584 167 318 L 167 313 C 167 311.895416 167.895416 311 169 311 Z"/>
        <path id="path29" fill="#b0b7c3" stroke="none" d="M 185 311 L 193 311 C 194.104584 311 195 311.895416 195 313 L 195 318 C 195 319.104584 194.104584 320 193 320 L 185 320 C 183.895416 320 183 319.104584 183 318 L 183 313 C 183 311.895416 183.895416 311 185 311 Z"/>
        <path id="path30" fill="#b0b7c3" stroke="none" d="M 201 311 L 209 311 C 210.104584 311 211 311.895416 211 313 L 211 318 C 211 319.104584 210.104584 320 209 320 L 201 320 C 199.895416 320 199 319.104584 199 318 L 199 313 C 199 311.895416 199.895416 311 201 311 Z"/>
        <path id="path31" fill="#b0b7c3" stroke="none" d="M 217 311 L 225 311 C 226.104584 311 227 311.895416 227 313 L 227 318 C 227 319.104584 226.104584 320 225 320 L 217 320 C 215.895416 320 215 319.104584 215 318 L 215 313 C 215 311.895416 215.895416 311 217 311 Z"/>
        <path id="path32" fill="#b0b7c3" stroke="none" d="M 233 311 L 241 311 C 242.104584 311 243 311.895416 243 313 L 243 318 C 243 319.104584 242.104584 320 241 320 L 233 320 C 231.895416 320 231 319.104584 231 318 L 231 313 C 231 311.895416 231.895416 311 233 311 Z"/>
        <path id="path33" fill="#b0b7c3" stroke="none" d="M 249 311 L 257 311 C 258.104584 311 259 311.895416 259 313 L 259 318 C 259 319.104584 258.104584 320 257 320 L 249 320 C 247.895416 320 247 319.104584 247 318 L 247 313 C 247 311.895416 247.895416 311 249 311 Z"/>
        <path id="path34" fill="#b0b7c3" stroke="none" d="M 265 311 L 273 311 C 274.104584 311 275 311.895416 275 313 L 275 318 C 275 319.104584 274.104584 320 273 320 L 265 320 C 263.895416 320 263 319.104584 263 318 L 263 313 C 263 311.895416 263.895416 311 265 311 Z"/>
        <path id="path35" fill="#b0b7c3" stroke="none" d="M 281 311 L 289 311 C 290.104584 311 291 311.895416 291 313 L 291 318 C 291 319.104584 290.104584 320 289 320 L 281 320 C 279.895416 320 279 319.104584 279 318 L 279 313 C 279 311.895416 279.895416 311 281 311 Z"/>
        <path id="path36" fill="#b0b7c3" stroke="none" d="M 297 311 L 305 311 C 306.104584 311 307 311.895416 307 313 L 307 318 C 307 319.104584 306.104584 320 305 320 L 297 320 C 295.895416 320 295 319.104584 295 318 L 295 313 C 295 311.895416 295.895416 311 297 311 Z"/>
        <path id="path37" fill="#b0b7c3" stroke="none" d="M 313 311 L 321 311 C 322.104584 311 323 311.895416 323 313 L 323 318 C 323 319.104584 322.104584 320 321 320 L 313 320 C 311.895416 320 311 319.104584 311 318 L 311 313 C 311 311.895416 311.895416 311 313 311 Z"/>
        <path id="path38" fill="#b0b7c3" stroke="none" d="M 329 311 L 359 311 C 360.104584 311 361 311.895416 361 313 L 361 318 C 361 319.104584 360.104584 320 359 320 L 329 320 C 327.895416 320 327 319.104584 327 318 L 327 313 C 327 311.895416 327.895416 311 329 311 Z"/>
        <path id="path39" fill="#b0b7c3" stroke="none" d="M 118 325 L 332 325 C 333.65686 325 335 326.34314 335 328 L 335 332 C 335 333.65686 333.65686 335 332 335 L 118 335 C 116.34314 335 115 333.65686 115 332 L 115 328 C 115 326.34314 116.34314 325 118 325 Z"/>
    </g>
    <path id="path40" fill="#d1d5db" stroke="#9ca3af" stroke-width="0.8" d="M 179 327 L 271 327 C 273.209137 327 275 328.790863 275 331 L 275 337 C 275 339.209137 273.209137 341 271 341 L 179 341 C 176.790863 341 175 339.209137 175 337 L 175 331 C 175 328.790863 176.790863 327 179 327 Z"/>
    <path id="path41" fill="#e5e7eb" stroke="#d1d5db" d="M 43 78 L 407 78 C 412.522827 78 417 82.477142 417 88 L 417 336 C 417 341.522858 412.522827 346 407 346 L 43 346 C 37.477158 346 33 341.522858 33 336 L 33 88 C 33 82.477142 37.477158 78 43 78 Z"/>
    <path id="path42" fill="#1e293b" stroke="none" d="M 53 90 L 397 90 C 400.313721 90 403 92.686279 403 96 L 403 328 C 403 331.313721 400.313721 334 397 334 L 53 334 C 49.686295 334 47 331.313721 47 328 L 47 96 C 47 92.686279 49.686295 90 53 90 Z"/>
    <path id="path43" fill="#1e3a5f" stroke="none" opacity="0.6" d="M 53 90 L 397 90 C 400.313721 90 403 92.686279 403 96 L 403 124 C 403 127.313721 400.313721 130 397 130 L 53 130 C 49.686295 130 47 127.313721 47 124 L 47 96 C 47 92.686279 49.686295 90 53 90 Z"/>
    <path id="path44" fill="#d1d5db" stroke="none" d="M 231 84 C 231 87.313721 228.313721 90 225 90 C 221.686279 90 219 87.313721 219 84 C 219 80.686279 221.686279 78 225 78 C 228.313721 78 231 80.686279 231 84 Z"/>
    <path id="path45" fill="#374151" stroke="none" d="M 228.5 84 C 228.5 85.932983 226.932983 87.5 225 87.5 C 223.067017 87.5 221.5 85.932983 221.5 84 C 221.5 82.067017 223.067017 80.5 225 80.5 C 226.932983 80.5 228.5 82.067017 228.5 84 Z"/>
    <path id="path46" fill="#6b7280" stroke="none" opacity="0.6" d="M 226 83 C 226 83.552277 225.552277 84 225 84 C 224.447723 84 224 83.552277 224 83 C 224 82.447723 224.447723 82 225 82 C 225.552277 82 226 82.447723 226 83 Z"/>
    <path id="path47" fill="#1d4ed8" stroke="none" opacity="0.25" d="M 103 106 L 347 106 C 359.150269 106 369 115.849731 369 128 L 369 260 C 369 272.150269 359.150269 282 347 282 L 103 282 C 90.849731 282 81 272.150269 81 260 L 81 128 C 81 115.849731 90.849731 106 103 106 Z"/>
    <path id="path48" fill="#2563eb" stroke="none" d="M 99 102 L 343 102 C 355.150269 102 365 111.849731 365 124 L 365 256 C 365 268.150269 355.150269 278 343 278 L 99 278 C 86.849731 278 77 268.150269 77 256 L 77 124 C 77 111.849731 86.849731 102 99 102 Z"/>
    <path id="path49" fill="#2563eb" stroke="none" d="M 185 278 L 155 302 L 225 278 Z"/>
    <text id="SMS" xml:space="preserve" x="120.652344" y="214" font-family="Arial" font-size="88" font-weight="700" fill="#ffffff" letter-spacing="4">SMS</text>
</svg>
